<?xml version="1.0" encoding="utf-8"?>
<!-- Generator: Adobe Illustrator 25.0.1, SVG Export Plug-In . SVG Version: 6.00 Build 0)  -->
<svg version="1.1" id="Layer_1" xmlns="http://www.w3.org/2000/svg" xmlns:xlink="http://www.w3.org/1999/xlink" x="0px" y="0px"
	 viewBox="0 0 60 60" style="enable-background:new 0 0 60 60;" xml:space="preserve">
<g>
	<path d="M48.4,5.5c0.8,0,1.6,0.2,2.4,0.5c0.7,0.3,1.4,0.8,2,1.3c0.6,0.6,1,1.2,1.3,2c0.3,0.7,0.5,1.5,0.5,2.4
		c0,0.8-0.2,1.6-0.5,2.3c-0.3,0.7-0.7,1.4-1.3,2c-0.5,0.6-1.2,1-1.9,1.4c-0.7,0.3-1.5,0.5-2.3,0.5c-0.1,0-0.2,0-0.3,0
		c-0.1,0-0.2,0-0.3,0c-0.2,0-0.3,0.1-0.5,0.4s-0.3,0.6-0.4,1c-0.1,0.4-0.2,0.7-0.3,1c-0.1,0.3-0.2,0.6-0.2,0.7l-4.1,13.6l2.1,4.3
		c0.3,0.7,0.5,1.3,0.5,2c0,0.5-0.1,1-0.2,1.4s-0.4,0.9-0.7,1.3c-0.3,0.4-0.6,0.7-1,1c-0.4,0.3-0.8,0.5-1.3,0.7
		c0.2,0.6,0.3,1.2,0.3,1.8c0,0.8-0.2,1.6-0.5,2.4c-0.3,0.7-0.8,1.4-1.3,1.9c-0.6,0.6-1.2,1-2,1.3S36.9,53,36.1,53
		c-0.8,0-1.6-0.2-2.4-0.5c-0.7-0.3-1.4-0.8-2-1.3s-1-1.2-1.3-2c-0.3-0.7-0.5-1.5-0.5-2.4c0-0.5,0.1-1,0.2-1.5h-5
		c0.1,0.5,0.2,1,0.2,1.5c0,0.8-0.2,1.6-0.5,2.4c-0.3,0.7-0.8,1.4-1.3,2s-1.2,1-2,1.3c-0.7,0.3-1.5,0.5-2.4,0.5
		c-0.8,0-1.6-0.2-2.4-0.5c-0.7-0.3-1.4-0.8-2-1.3c-0.6-0.6-1-1.2-1.3-1.9c-0.3-0.7-0.5-1.5-0.5-2.4c0-0.5,0.1-1,0.2-1.5H7v-3.1
		c0-0.6,0.1-1.2,0.2-1.7C7.4,40,7.6,39.5,8,39c0.3-0.5,0.7-0.9,1.1-1.3c0.4-0.4,0.9-0.7,1.5-1c-0.1-0.1-0.1-0.2-0.2-0.4
		s-0.1-0.3-0.1-0.4L5.7,20.6c-0.1-0.4-0.2-0.9-0.2-1.3c0-0.6,0.1-1.2,0.4-1.8c0.2-0.6,0.6-1.1,1-1.5c0.4-0.4,0.9-0.8,1.5-1
		c0.6-0.2,1.2-0.4,1.8-0.4h29c0.9-1.8,2-3.3,3.4-4.6c0.2-0.7,0.5-1.3,0.9-1.8c0.4-0.6,0.8-1,1.4-1.5s1.1-0.7,1.7-0.9
		C47,5.6,47.7,5.5,48.4,5.5z M39.3,34.7l4.5-15c0.2-0.8,0.5-1.5,0.8-2.1c0.3-0.6,0.6-1.2,1-1.8c0.4-0.5,0.9-1,1.4-1.5
		c0.5-0.4,1.2-0.8,1.9-1.2c0.3-0.2,0.6-0.3,0.8-0.6s0.3-0.5,0.3-0.9c0-0.4-0.2-0.8-0.5-1.1c-0.3-0.3-0.7-0.4-1.1-0.4
		c-0.2,0-0.5,0.1-0.7,0.2s-0.6,0.2-0.9,0.4c-0.3,0.2-0.6,0.3-0.8,0.5s-0.5,0.3-0.6,0.5c-1,0.8-1.9,1.7-2.6,2.7
		c-0.7,1.1-1.2,2.2-1.6,3.4h-31c-0.4,0-0.8,0.1-1.1,0.4c-0.3,0.3-0.5,0.7-0.5,1.1c0,0.2,0.1,0.6,0.2,1.1s0.3,1.3,0.6,2
		c0.2,0.8,0.5,1.6,0.8,2.5c0.3,0.9,0.5,1.8,0.8,2.6c0.3,0.8,0.5,1.6,0.7,2.2s0.4,1.1,0.5,1.4c0.2,0.6,0.4,1.3,0.5,1.9
		c0.2,0.6,0.4,1.3,0.6,1.9c0.1,0.3,0.3,0.6,0.6,0.8c0.2,0.2,0.5,0.3,0.9,0.3h21.9l1.5,3.1h-25c-0.4,0-0.8,0.1-1.2,0.2
		s-0.7,0.4-1,0.7s-0.5,0.6-0.7,1c-0.2,0.4-0.2,0.8-0.2,1.2h30.5c0.4,0,0.8-0.1,1.1-0.4c0.3-0.3,0.5-0.7,0.5-1.1
		c0-0.1-0.1-0.3-0.2-0.6c-0.1-0.3-0.3-0.6-0.5-1c-0.2-0.4-0.4-0.8-0.6-1.2c-0.2-0.4-0.4-0.9-0.7-1.3c-0.2-0.4-0.4-0.8-0.6-1.1
		C39.5,35.1,39.3,34.8,39.3,34.7z M13.5,25.5l-1.4-4.6h4.1v4.6H13.5z M15.8,33.1l-1.4-4.6h1.8v4.6H15.8z M20.8,46.9v-3.1h-4.7
		l1.8,3.8c0.1,0.3,0.3,0.5,0.5,0.6c0.2,0.1,0.5,0.2,0.8,0.2c0.4,0,0.8-0.1,1.1-0.4S20.8,47.3,20.8,46.9z M17.7,25.5v-4.6h4.6v4.6
		H17.7z M17.7,33.1v-4.6h4.6v4.6H17.7z M23.9,25.5v-4.6h4.6v4.6H23.9z M23.9,33.1v-4.6h4.6v4.6H23.9z M30,25.5v-4.6h4.6v4.6H30z
		 M30,33.1v-4.6h4.6v4.6H30z M37.7,46.9v-3.1H33c0.3,0.6,0.6,1.2,0.9,1.9c0.3,0.6,0.6,1.3,0.9,1.9c0.1,0.2,0.3,0.4,0.6,0.6
		s0.5,0.2,0.8,0.2c0.4,0,0.8-0.1,1.1-0.4S37.7,47.3,37.7,46.9z M36.1,25.5v-4.6h4.1l-1.4,4.6H36.1z M36.1,33.1v-4.6h1.8l-1.4,4.6
		H36.1z"/>
</g>
</svg>
